<mxfile host="Electron" modified="2024-03-29T23:57:59.211Z" agent="Mozilla/5.0 (Windows NT 10.0; Win64; x64) AppleWebKit/537.36 (KHTML, like Gecko) draw.io/24.1.0 Chrome/120.0.6099.109 Electron/28.1.0 Safari/537.36" etag="xyB9PHZS4VpKF4kgHJ6K" version="24.1.0" type="device">
  <diagram name="Página-1" id="FCaBj5DajixWwJdqojE5">
    <mxGraphModel dx="1420" dy="830" grid="1" gridSize="10" guides="1" tooltips="1" connect="1" arrows="1" fold="1" page="1" pageScale="1" pageWidth="827" pageHeight="1169" background="#CCE5FF" math="0" shadow="0">
      <root>
        <mxCell id="0" />
        <mxCell id="1" parent="0" />
        <mxCell id="YLW5Azx_HoxJYvWFOLYe-1" value="&lt;p style=&quot;line-height: 90%;&quot;&gt;&lt;b style=&quot;font-size: 15px;&quot;&gt;&lt;font style=&quot;font-size: 15px;&quot; color=&quot;#000000&quot; face=&quot;Comic Sans MS&quot;&gt;15&lt;br&gt;&lt;br&gt;Un año es bisiesto si es múltiplo de 4, exceptuando a los años que son múltiplos de 100 pero que no sean múltiplos de 400. Esto último significa que el año 1900 no es bisiesto, pero el año 2000 sí lo es. Hacer un programa para  ingresar un año y listar por pantalla si es bisiesto o no lo es. &lt;br&gt;&lt;br&gt;&lt;br&gt;Ejemplo A. Si se ingresa el año 2020 se indicará como bisiesto. &lt;br&gt;&lt;br&gt;Ejemplo B. Si se ingresa el año 2019 se indicará como no bisiesto. &lt;br&gt;&lt;br&gt;Ejemplo C. Si se ingresa el año 1800 o 1900 se indicará como no bisiesto. Ejemplo D. Si se ingresa el año 1600 o 2000 se indicará como bisiesto.&lt;/font&gt;&lt;/b&gt;&lt;/p&gt;" style="text;whiteSpace=wrap;html=1;fontFamily=Architects Daughter;fontSource=https%3A%2F%2Ffonts.googleapis.com%2Fcss%3Ffamily%3DArchitects%2BDaughter;" vertex="1" parent="1">
          <mxGeometry x="60" width="660" height="220" as="geometry" />
        </mxCell>
        <mxCell id="YLW5Azx_HoxJYvWFOLYe-2" style="edgeStyle=orthogonalEdgeStyle;rounded=0;sketch=1;hachureGap=4;jiggle=2;curveFitting=1;orthogonalLoop=1;jettySize=auto;html=1;exitX=0.5;exitY=1;exitDx=0;exitDy=0;fontFamily=Architects Daughter;fontSource=https%3A%2F%2Ffonts.googleapis.com%2Fcss%3Ffamily%3DArchitects%2BDaughter;" edge="1" parent="1" source="YLW5Azx_HoxJYvWFOLYe-1" target="YLW5Azx_HoxJYvWFOLYe-1">
          <mxGeometry relative="1" as="geometry" />
        </mxCell>
        <mxCell id="YLW5Azx_HoxJYvWFOLYe-35" value="" style="group" vertex="1" connectable="0" parent="1">
          <mxGeometry x="132.5" y="250" width="458" height="460" as="geometry" />
        </mxCell>
        <mxCell id="YLW5Azx_HoxJYvWFOLYe-11" value="" style="group;aspect=fixed;" vertex="1" connectable="0" parent="YLW5Azx_HoxJYvWFOLYe-35">
          <mxGeometry x="172.5" y="70" width="110" height="40" as="geometry" />
        </mxCell>
        <mxCell id="YLW5Azx_HoxJYvWFOLYe-5" value="" style="shape=trapezoid;perimeter=trapezoidPerimeter;whiteSpace=wrap;html=1;fixedSize=1;rounded=0;labelBackgroundColor=none;strokeColor=#121211;strokeWidth=2;align=center;verticalAlign=middle;fontFamily=Helvetica;fontSize=12;fontColor=default;fillColor=#d5e8d4;direction=west;container=0;aspect=fixed;" vertex="1" parent="YLW5Azx_HoxJYvWFOLYe-11">
          <mxGeometry width="110" height="40" as="geometry">
            <mxRectangle x="-1020" y="-650" width="50" height="40" as="alternateBounds" />
          </mxGeometry>
        </mxCell>
        <mxCell id="YLW5Azx_HoxJYvWFOLYe-8" value="&lt;b&gt;&lt;font color=&quot;#000000&quot; style=&quot;font-size: 16px;&quot; face=&quot;Comic Sans MS&quot;&gt;año&lt;/font&gt;&lt;/b&gt;" style="text;strokeColor=none;align=center;fillColor=none;html=1;verticalAlign=middle;whiteSpace=wrap;rounded=0;fontFamily=Architects Daughter;fontSource=https%3A%2F%2Ffonts.googleapis.com%2Fcss%3Ffamily%3DArchitects%2BDaughter;aspect=fixed;container=0;" vertex="1" parent="YLW5Azx_HoxJYvWFOLYe-11">
          <mxGeometry x="5" y="5" width="100" height="30" as="geometry" />
        </mxCell>
        <mxCell id="YLW5Azx_HoxJYvWFOLYe-12" value="" style="group;aspect=fixed;" vertex="1" connectable="0" parent="YLW5Azx_HoxJYvWFOLYe-35">
          <mxGeometry x="207.5" width="40" height="40" as="geometry" />
        </mxCell>
        <mxCell id="YLW5Azx_HoxJYvWFOLYe-3" value="" style="strokeWidth=2;html=1;shape=mxgraph.flowchart.start_2;whiteSpace=wrap;rounded=0;labelBackgroundColor=none;strokeColor=#000000;align=center;verticalAlign=middle;fontFamily=Helvetica;fontSize=12;fontColor=default;fillColor=#d5e8d4;aspect=fixed;" vertex="1" parent="YLW5Azx_HoxJYvWFOLYe-12">
          <mxGeometry width="40" height="40" as="geometry" />
        </mxCell>
        <mxCell id="YLW5Azx_HoxJYvWFOLYe-9" value="&lt;b&gt;&lt;font color=&quot;#000000&quot; style=&quot;font-size: 17px;&quot; face=&quot;Comic Sans MS&quot;&gt;I&lt;/font&gt;&lt;/b&gt;" style="text;strokeColor=none;align=center;fillColor=none;html=1;verticalAlign=middle;whiteSpace=wrap;rounded=0;fontFamily=Architects Daughter;fontSource=https://fonts.googleapis.com/css?family=Architects+Daughter;aspect=fixed;" vertex="1" parent="YLW5Azx_HoxJYvWFOLYe-12">
          <mxGeometry y="5" width="40" height="30" as="geometry" />
        </mxCell>
        <mxCell id="YLW5Azx_HoxJYvWFOLYe-13" value="" style="group;aspect=fixed;" vertex="1" connectable="0" parent="YLW5Azx_HoxJYvWFOLYe-35">
          <mxGeometry x="207.5" y="420" width="40" height="40" as="geometry" />
        </mxCell>
        <mxCell id="YLW5Azx_HoxJYvWFOLYe-4" value="" style="strokeWidth=2;html=1;shape=mxgraph.flowchart.start_2;whiteSpace=wrap;rounded=0;labelBackgroundColor=none;strokeColor=#000000;align=center;verticalAlign=middle;fontFamily=Helvetica;fontSize=12;fontColor=default;fillColor=#d5e8d4;aspect=fixed;" vertex="1" parent="YLW5Azx_HoxJYvWFOLYe-13">
          <mxGeometry width="40" height="40" as="geometry" />
        </mxCell>
        <mxCell id="YLW5Azx_HoxJYvWFOLYe-10" value="&lt;b&gt;&lt;font color=&quot;#000000&quot; style=&quot;font-size: 16px;&quot; face=&quot;Comic Sans MS&quot;&gt;F&lt;/font&gt;&lt;/b&gt;" style="text;strokeColor=none;align=center;fillColor=none;html=1;verticalAlign=middle;whiteSpace=wrap;rounded=0;fontFamily=Architects Daughter;fontSource=https://fonts.googleapis.com/css?family=Architects+Daughter;aspect=fixed;" vertex="1" parent="YLW5Azx_HoxJYvWFOLYe-13">
          <mxGeometry y="5" width="40" height="30" as="geometry" />
        </mxCell>
        <mxCell id="YLW5Azx_HoxJYvWFOLYe-15" value="" style="group;aspect=fixed;" vertex="1" connectable="0" parent="YLW5Azx_HoxJYvWFOLYe-35">
          <mxGeometry x="140" y="140" width="175" height="180" as="geometry" />
        </mxCell>
        <mxCell id="YLW5Azx_HoxJYvWFOLYe-7" value="" style="rhombus;whiteSpace=wrap;html=1;rounded=0;labelBackgroundColor=none;strokeColor=#0F140C;strokeWidth=2;align=center;verticalAlign=middle;fontFamily=Helvetica;fontSize=12;fontColor=default;fillColor=#d5e8d4;aspect=fixed;" vertex="1" parent="YLW5Azx_HoxJYvWFOLYe-15">
          <mxGeometry width="175" height="180" as="geometry" />
        </mxCell>
        <mxCell id="YLW5Azx_HoxJYvWFOLYe-14" value="&lt;font face=&quot;Comic Sans MS&quot; color=&quot;#000000&quot;&gt;&lt;b&gt;año % 4 == 0&lt;/b&gt;&lt;/font&gt;&lt;div&gt;&lt;font face=&quot;Comic Sans MS&quot; color=&quot;#000000&quot;&gt;&lt;b&gt;&amp;amp;&amp;amp;&lt;/b&gt;&lt;/font&gt;&lt;/div&gt;&lt;div&gt;&lt;font face=&quot;Comic Sans MS&quot; color=&quot;#000000&quot;&gt;&lt;b&gt;(año % 100 != 0&lt;/b&gt;&lt;/font&gt;&lt;/div&gt;&lt;div&gt;&lt;font face=&quot;Comic Sans MS&quot; color=&quot;#000000&quot;&gt;&lt;b&gt;||&lt;/b&gt;&lt;/font&gt;&lt;/div&gt;&lt;div&gt;&lt;font face=&quot;Comic Sans MS&quot; color=&quot;#000000&quot;&gt;&lt;b&gt;año % 400 == 0)&lt;/b&gt;&lt;/font&gt;&lt;/div&gt;" style="text;strokeColor=none;align=center;fillColor=none;html=1;verticalAlign=middle;whiteSpace=wrap;rounded=0;fontFamily=Architects Daughter;fontSource=https%3A%2F%2Ffonts.googleapis.com%2Fcss%3Ffamily%3DArchitects%2BDaughter;aspect=fixed;" vertex="1" parent="YLW5Azx_HoxJYvWFOLYe-15">
          <mxGeometry x="32.5" y="40" width="110" height="90" as="geometry" />
        </mxCell>
        <mxCell id="YLW5Azx_HoxJYvWFOLYe-21" value="" style="line;strokeWidth=2;direction=south;html=1;hachureGap=4;fontFamily=Architects Daughter;fontSource=https://fonts.googleapis.com/css?family=Architects+Daughter;strokeColor=#000000;aspect=fixed;" vertex="1" parent="YLW5Azx_HoxJYvWFOLYe-15">
          <mxGeometry x="82.5" y="-30" width="10" height="30" as="geometry" />
        </mxCell>
        <mxCell id="YLW5Azx_HoxJYvWFOLYe-19" value="" style="group;aspect=fixed;" vertex="1" connectable="0" parent="YLW5Azx_HoxJYvWFOLYe-35">
          <mxGeometry x="315" y="280" width="143" height="40" as="geometry" />
        </mxCell>
        <mxCell id="YLW5Azx_HoxJYvWFOLYe-16" value="" style="shape=trapezoid;perimeter=trapezoidPerimeter;whiteSpace=wrap;html=1;fixedSize=1;rounded=0;labelBackgroundColor=none;strokeColor=#0F140C;strokeWidth=2;align=center;verticalAlign=middle;fontFamily=Helvetica;fontSize=12;fontColor=default;fillColor=#d5e8d4;aspect=fixed;" vertex="1" parent="YLW5Azx_HoxJYvWFOLYe-19">
          <mxGeometry width="142.5" height="40" as="geometry" />
        </mxCell>
        <mxCell id="YLW5Azx_HoxJYvWFOLYe-18" value="&lt;b&gt;&lt;font color=&quot;#000000&quot; style=&quot;font-size: 15px;&quot; face=&quot;Comic Sans MS&quot;&gt;no_bisiesto&lt;/font&gt;&lt;/b&gt;" style="text;strokeColor=none;align=center;fillColor=none;html=1;verticalAlign=middle;whiteSpace=wrap;rounded=0;fontFamily=Architects Daughter;fontSource=https://fonts.googleapis.com/css?family=Architects+Daughter;aspect=fixed;" vertex="1" parent="YLW5Azx_HoxJYvWFOLYe-19">
          <mxGeometry x="3" y="5" width="140" height="30" as="geometry" />
        </mxCell>
        <mxCell id="YLW5Azx_HoxJYvWFOLYe-20" value="" style="group;aspect=fixed;" vertex="1" connectable="0" parent="YLW5Azx_HoxJYvWFOLYe-35">
          <mxGeometry y="280" width="140" height="35" as="geometry" />
        </mxCell>
        <mxCell id="YLW5Azx_HoxJYvWFOLYe-6" value="" style="shape=trapezoid;perimeter=trapezoidPerimeter;whiteSpace=wrap;html=1;fixedSize=1;rounded=0;labelBackgroundColor=none;strokeColor=#0F140C;strokeWidth=2;align=center;verticalAlign=middle;fontFamily=Helvetica;fontSize=12;fontColor=default;fillColor=#d5e8d4;aspect=fixed;" vertex="1" parent="YLW5Azx_HoxJYvWFOLYe-20">
          <mxGeometry width="140" height="35" as="geometry" />
        </mxCell>
        <mxCell id="YLW5Azx_HoxJYvWFOLYe-17" value="&lt;b&gt;&lt;font color=&quot;#000000&quot; style=&quot;font-size: 15px;&quot; face=&quot;Comic Sans MS&quot;&gt;bisiesto&lt;/font&gt;&lt;/b&gt;" style="text;strokeColor=none;align=center;fillColor=none;html=1;verticalAlign=middle;whiteSpace=wrap;rounded=0;fontFamily=Architects Daughter;fontSource=https%3A%2F%2Ffonts.googleapis.com%2Fcss%3Ffamily%3DArchitects%2BDaughter;aspect=fixed;" vertex="1" parent="YLW5Azx_HoxJYvWFOLYe-20">
          <mxGeometry x="20" y="7.5" width="100" height="20" as="geometry" />
        </mxCell>
        <mxCell id="YLW5Azx_HoxJYvWFOLYe-22" value="" style="line;strokeWidth=2;direction=south;html=1;hachureGap=4;fontFamily=Architects Daughter;fontSource=https://fonts.googleapis.com/css?family=Architects+Daughter;strokeColor=#000000;aspect=fixed;" vertex="1" parent="YLW5Azx_HoxJYvWFOLYe-35">
          <mxGeometry x="381.5" y="230" width="10" height="50" as="geometry" />
        </mxCell>
        <mxCell id="YLW5Azx_HoxJYvWFOLYe-23" value="" style="line;strokeWidth=2;direction=south;html=1;hachureGap=4;fontFamily=Architects Daughter;fontSource=https://fonts.googleapis.com/css?family=Architects+Daughter;strokeColor=#000000;aspect=fixed;" vertex="1" parent="YLW5Azx_HoxJYvWFOLYe-35">
          <mxGeometry x="222.5" y="40" width="10" height="30" as="geometry" />
        </mxCell>
        <mxCell id="YLW5Azx_HoxJYvWFOLYe-24" value="" style="line;strokeWidth=2;direction=south;html=1;hachureGap=4;fontFamily=Architects Daughter;fontSource=https://fonts.googleapis.com/css?family=Architects+Daughter;strokeColor=#000000;aspect=fixed;" vertex="1" parent="YLW5Azx_HoxJYvWFOLYe-35">
          <mxGeometry x="65" y="230" width="10" height="50" as="geometry" />
        </mxCell>
        <mxCell id="YLW5Azx_HoxJYvWFOLYe-25" value="" style="line;strokeWidth=2;direction=south;html=1;hachureGap=4;fontFamily=Architects Daughter;fontSource=https://fonts.googleapis.com/css?family=Architects+Daughter;strokeColor=#000000;aspect=fixed;" vertex="1" parent="YLW5Azx_HoxJYvWFOLYe-35">
          <mxGeometry x="381.5" y="320" width="10" height="50" as="geometry" />
        </mxCell>
        <mxCell id="YLW5Azx_HoxJYvWFOLYe-26" value="" style="line;strokeWidth=2;direction=south;html=1;hachureGap=4;fontFamily=Architects Daughter;fontSource=https://fonts.googleapis.com/css?family=Architects+Daughter;strokeColor=#000000;aspect=fixed;" vertex="1" parent="YLW5Azx_HoxJYvWFOLYe-35">
          <mxGeometry x="65" y="315" width="10" height="50" as="geometry" />
        </mxCell>
        <mxCell id="YLW5Azx_HoxJYvWFOLYe-27" value="" style="line;strokeWidth=2;direction=south;html=1;hachureGap=4;fontFamily=Architects Daughter;fontSource=https://fonts.googleapis.com/css?family=Architects+Daughter;strokeColor=#000000;aspect=fixed;" vertex="1" parent="YLW5Azx_HoxJYvWFOLYe-35">
          <mxGeometry x="222.5" y="365" width="10" height="55" as="geometry" />
        </mxCell>
        <mxCell id="YLW5Azx_HoxJYvWFOLYe-29" value="" style="line;strokeWidth=2;html=1;perimeter=backbonePerimeter;points=[];outlineConnect=0;hachureGap=4;fontFamily=Architects Daughter;fontSource=https://fonts.googleapis.com/css?family=Architects+Daughter;strokeColor=#000000;aspect=fixed;" vertex="1" parent="YLW5Azx_HoxJYvWFOLYe-35">
          <mxGeometry x="315" y="225" width="72.5" height="10" as="geometry" />
        </mxCell>
        <mxCell id="YLW5Azx_HoxJYvWFOLYe-31" value="" style="line;strokeWidth=2;html=1;perimeter=backbonePerimeter;points=[];outlineConnect=0;hachureGap=4;fontFamily=Architects Daughter;fontSource=https://fonts.googleapis.com/css?family=Architects+Daughter;strokeColor=#000000;aspect=fixed;" vertex="1" parent="YLW5Azx_HoxJYvWFOLYe-35">
          <mxGeometry x="67.5" y="225" width="72.5" height="10" as="geometry" />
        </mxCell>
        <mxCell id="YLW5Azx_HoxJYvWFOLYe-33" value="" style="line;strokeWidth=2;html=1;perimeter=backbonePerimeter;points=[];outlineConnect=0;hachureGap=4;fontFamily=Architects Daughter;fontSource=https://fonts.googleapis.com/css?family=Architects+Daughter;strokeColor=#000000;aspect=fixed;" vertex="1" parent="YLW5Azx_HoxJYvWFOLYe-35">
          <mxGeometry x="67.5" y="360" width="320" height="10" as="geometry" />
        </mxCell>
      </root>
    </mxGraphModel>
  </diagram>
</mxfile>
